<svg height="512" viewBox="0 0 44 58" width="512" xmlns="http://www.w3.org/2000/svg"><g id="Page-1" fill="none" fill-rule="evenodd"><g id="019---Boiling-Point" fill="rgb(0,0,0)" fill-rule="nonzero"><path id="Shape" d="m21 32v7.68c.0036961.765405-.4317097 1.4651644-1.12 1.8-2.1181932.9941831-3.2636107 3.3244285-2.7569831 5.6088258s2.5297893 3.9119236 4.8696851 3.9174034c2.3398959.0054799 4.3706584-1.6125524 4.8879802-3.8945517.5173217-2.2819993-.6171688-4.6175841-2.7306822-5.6216775-.7096248-.3467079-1.1569683-1.0702372-1.15-1.86v-7.63z"/><path id="Shape" d="m29.39 36.55c-.2417457-.1916419-.384865-.4815502-.39-.79v-3.76h-4v7.63c2.4381214 1.1877631 3.9892723 3.6579709 4 6.37.0016747 3.4743192-2.5452116 6.4241034-5.9826417 6.9290498-3.4374302.5049464-6.7250422-1.5877704-7.7226082-4.9157967s.5968343-6.8841118 3.7452499-8.3532531l-.03-7.66h-4.01v3.76c-.005135.3084498-.1482543.5983581-.39.79-4.1036639 3.2114451-5.66574813 8.7042477-3.8661105 13.5945178 1.7996377 4.8902701 6.5496402 8.0602012 11.7561105 7.8454822 6.4542734-.3305872 11.5137931-5.6672805 11.5-12.13-.0354473-3.6442194-1.7331418-7.0727521-4.61-9.31z"/><path id="Shape" d="m23 7c.0044841-.26051252-.1007553-.5109097-.29-.69-.206857-.22322875-.5076399-.33462982-.81-.3-.5344064.08735186-.9202009.55887851-.9 1.1v2.89h2z"/><path id="Shape" d="m19 7.11c-.0172409-1.57964017 1.1608541-2.91740373 2.73-3.1.8881084-.07830634 1.7647283.24446583 2.39.88.5677201.55463169.8854002 1.31634184.88 2.11v3h4v-3c-.0010911-3.7766591-2.995484-6.87278183-6.77-7-1.92862-.00222189-3.7780094.76705083-5.1361037 2.13641562-1.3580944 1.3693648-2.1120568 3.22504859-2.0938963 5.15358438v2.71h4z"/><path id="Shape" d="m16 29c.5522847 0 1-.4477153 1-1s-.4477153-1-1-1h-3v-13c-.0000863-.4043959-.2437275-.7689341-.6173454-.923678-.373618-.1547439-.8036603-.0692299-1.0896546.216678l-4 4c-.37897221.3923789-.37355237 1.0160848.01218142 1.4018186.3857338.3857338 1.00943969.3911536 1.40181858.0121814l2.293-2.293v10.586h-3c-.55228475 0-1 .4477153-1 1s.44771525 1 1 1z"/><path id="Shape" d="m27 24v-6c0-2.7614237-2.2385763-5-5-5s-5 2.2385763-5 5v6c0 2.7614237 2.2385763 5 5 5s5-2.2385763 5-5zm-8-6c0-1.6568542 1.3431458-3 3-3 .6884685.0027541 1.3545351.244928 1.884.685l-4.864 8.515c0-.068-.02-.132-.02-.2zm6 6c0 1.6568542-1.3431458 3-3 3-.6884685-.0027541-1.3545351-.244928-1.884-.685l4.864-8.515c0 .068.02.132.02.2z"/><path id="Shape" d="m39 24v-6c0-2.7614237-2.2385763-5-5-5s-5 2.2385763-5 5v6c0 2.7614237 2.2385763 5 5 5s5-2.2385763 5-5zm-8-6c0-1.6568542 1.3431458-3 3-3 .6884685.0027541 1.3545351.244928 1.884.685l-4.864 8.515c0-.068-.02-.132-.02-.2zm6 6c0 1.6568542-1.3431458 3-3 3-.6884685-.0027541-1.3545351-.244928-1.884-.685l4.864-8.515c0 .068.02.132.02.2z"/><path id="Shape" d="m40 12c1.6568542 0 3-1.3431458 3-3 0-1.65685425-1.3431458-3-3-3s-3 1.34314575-3 3c0 1.6568542 1.3431458 3 3 3zm0-4c.5522847 0 1 .44771525 1 1s-.4477153 1-1 1-1-.44771525-1-1 .4477153-1 1-1z"/><path id="Shape" d="m5 46c0-.5522847-.44771525-1-1-1h-3c-.55228475 0-1 .4477153-1 1s.44771525 1 1 1h3c.55228475 0 1-.4477153 1-1z"/><path id="Shape" d="m43 45h-3c-.5522847 0-1 .4477153-1 1s.4477153 1 1 1h3c.5522847 0 1-.4477153 1-1s-.4477153-1-1-1z"/><path id="Shape" d="m5.911 54.134-2.6 1.5c-.31195078.1773616-.50495322.5082732-.5057421.8671183-.00078889.3588451.19075673.6906021.50192468.8693336.31116795.1787314.694247.1770325 1.00381742-.0044519l2.6-1.5c.31195078-.1773616.50495322-.5082732.5057421-.8671183.00078889-.3588451-.19075673-.6906021-.50192468-.8693336-.31116795-.1787314-.694247-.1770325-1.00381742.0044519z"/><path id="Shape" d="m39.687 34.634-2.6 1.5c-.3119508.1773616-.5049532.5082732-.5057421.8671183s.1907567.6906021.5019247.8693336c.3111679.1787314.694247.1770325 1.0038174-.0044519l2.6-1.5c.4742136-.2780058.6351286-.886647.3602745-1.3626943-.274854-.4760473-.8824145-.640996-1.3602745-.3693057z"/><path id="Shape" d="m40.687 55.634-2.6-1.5c-.47786-.2716903-1.0854205-.1067416-1.3602745.3693057-.2748541.4760473-.1139391 1.0846885.3602745 1.3626943l2.6 1.5c.3095704.1814844.6926495.1831833 1.0038174.0044519.311168-.1787315.5027136-.5104885.5019247-.8693336s-.1937913-.6897567-.5057421-.8671183z"/><path id="Shape" d="m6.911 36.134-2.6-1.5c-.47785996-.2716903-1.08542045-.1067416-1.36027453.3693057s-.11393908 1.0846885.36027453 1.3626943l2.6 1.5c.30957042.1814844.69264947.1831833 1.00381742.0044519.31116795-.1787315.50271357-.5104885.50192468-.8693336-.00078888-.3588451-.19379132-.6897567-.5057421-.8671183z"/></g></g></svg>